<svg xmlns="http://www.w3.org/2000/svg"
     width="128" height="128" viewBox="0 0 128 128"
     role="img" aria-labelledby="relDbIconTitle">
  <title id="relDbIconTitle">Relational Database Icon</title>
  <defs>
    <!-- Gradients -->
    <linearGradient id="gradMain" x1="0" y1="0" x2="0" y2="1">
      <stop offset="0%" stop-color="currentColor" stop-opacity="0.85"/>
      <stop offset="100%" stop-color="currentColor" stop-opacity="0.65"/>
    </linearGradient>
    <linearGradient id="gradSub" x1="0" y1="0" x2="0" y2="1">
      <stop offset="0%" stop-color="currentColor" stop-opacity="0.7"/>
      <stop offset="100%" stop-color="currentColor" stop-opacity="0.5"/>
    </linearGradient>
    <!-- Drop shadow filter -->
    <filter id="ds" x="-20%" y="-20%" width="140%" height="140%">
      <feDropShadow dx="0" dy="4" stdDeviation="4" flood-color="rgba(0,0,0,0.3)"/>
    </filter>
  </defs>

  <!-- Light / Dark handling via currentColor -->
  <!-- Usage: wrap in a container with a CSS rule like `color: #4F46E5;` for light or `color: #A5B4FC;` for dark -->

  <!-- Central (main) table cylinder -->
  <g filter="url(#ds)">
    <ellipse class="main-top" cx="64" cy="36" rx="40" ry="16" fill="url(#gradMain)" stroke="currentColor" stroke-width="3"/>
    <path class="main-body"
          d="M24,36 v40 c0,8 18,16 40,16 s40,-8 40,-16 v-40"
          fill="url(#gradMain)" stroke="currentColor" stroke-width="3"/>
    <ellipse class="main-bottom" cx="64" cy="76" rx="40" ry="16" fill="url(#gradMain)" stroke="currentColor" stroke-width="3"/>
  </g>

  <!-- Left related table -->
  <g filter="url(#ds)">
    <ellipse cx="32" cy="100" rx="20" ry="8" fill="url(#gradSub)" stroke="currentColor" stroke-width="2"/>
    <path d="M12,100 v-24 c0,4.5 10,9 20,9 s20,-4.5 20,-9 v24"
          fill="url(#gradSub)" stroke="currentColor" stroke-width="2"/>
    <ellipse cx="32" cy="76" rx="20" ry="8" fill="url(#gradSub)" stroke="currentColor" stroke-width="2"/>
  </g>

  <!-- Right related table -->
  <g filter="url(#ds)">
    <ellipse cx="96" cy="100" rx="20" ry="8" fill="url(#gradSub)" stroke="currentColor" stroke-width="2"/>
    <path d="M76,100 v-24 c0,4.5 10,9 20,9 s20,-4.5 20,-9 v24"
          fill="url(#gradSub)" stroke="currentColor" stroke-width="2"/>
    <ellipse cx="96" cy="76" rx="20" ry="8" fill="url(#gradSub)" stroke="currentColor" stroke-width="2"/>
  </g>

  <!-- Relationship lines -->
  <line x1="48" y1="76" x2="28" y2="76" stroke="currentColor" stroke-width="2" stroke-linecap="round"/>
  <line x1="80" y1="76" x2="100" y2="76" stroke="currentColor" stroke-width="2" stroke-linecap="round"/>
</svg>